<svg width="375" height="391" viewBox="0 0 375 391" fill="none" xmlns="http://www.w3.org/2000/svg">
<path d="M299.128 220.52C298.436 219.933 297.889 219.231 297.524 218.455C297.158 217.679 296.98 216.846 297.002 216.009C296.988 215.181 297.173 214.359 297.547 213.595C297.92 212.832 298.473 212.143 299.17 211.574C300.552 210.4 302.413 209.742 304.353 209.742C306.292 209.742 308.153 210.4 309.535 211.574C310.232 212.143 310.785 212.832 311.158 213.595C311.532 214.359 311.717 215.181 311.703 216.009C311.699 217.266 311.264 218.493 310.454 219.537C309.644 220.581 308.495 221.395 307.15 221.877C305.806 222.359 304.326 222.488 302.897 222.246C301.469 222.005 300.154 221.404 299.12 220.52H299.128Z" fill="#FFF648"/>
<path d="M45.3026 231.49V187.854H75.0895V196.419H55.8494V205.368H73.1932V213.954H55.8494V231.49H45.3026ZM79.7557 231.49V198.763H89.8764V204.729H90.2173C90.8139 202.57 91.7869 200.964 93.1364 199.913C94.4858 198.848 96.0554 198.315 97.8452 198.315C98.3281 198.315 98.8253 198.351 99.3366 198.422C99.848 198.479 100.324 198.571 100.764 198.699V207.754C100.267 207.584 99.6136 207.449 98.804 207.349C98.0085 207.25 97.2983 207.2 96.6733 207.2C95.4375 207.2 94.3224 207.477 93.3281 208.031C92.348 208.571 91.5739 209.331 91.0057 210.311C90.4517 211.277 90.1747 212.413 90.1747 213.72V231.49H79.7557ZM118.609 232.108C115.185 232.108 112.231 231.433 109.745 230.084C107.273 228.72 105.37 226.781 104.035 224.267C102.714 221.739 102.053 218.734 102.053 215.254C102.053 211.874 102.721 208.919 104.056 206.391C105.391 203.848 107.273 201.874 109.702 200.467C112.131 199.047 114.994 198.337 118.289 198.337C120.619 198.337 122.749 198.699 124.681 199.423C126.613 200.148 128.282 201.22 129.688 202.641C131.094 204.061 132.188 205.815 132.969 207.903C133.751 209.977 134.141 212.356 134.141 215.041V217.641H105.697V211.589H124.447C124.433 210.481 124.17 209.494 123.658 208.628C123.147 207.761 122.444 207.087 121.549 206.604C120.668 206.106 119.653 205.858 118.502 205.858C117.337 205.858 116.293 206.121 115.37 206.646C114.447 207.158 113.715 207.861 113.175 208.756C112.636 209.636 112.352 210.638 112.323 211.76V217.918C112.323 219.253 112.586 220.425 113.112 221.433C113.637 222.427 114.383 223.202 115.349 223.756C116.315 224.31 117.465 224.587 118.8 224.587C119.724 224.587 120.562 224.459 121.315 224.203C122.067 223.947 122.714 223.571 123.254 223.074C123.793 222.577 124.198 221.966 124.468 221.241L134.035 221.518C133.637 223.663 132.763 225.531 131.414 227.122C130.079 228.699 128.325 229.927 126.151 230.808C123.978 231.675 121.464 232.108 118.609 232.108ZM168.035 208.756L158.468 209.011C158.369 208.329 158.099 207.726 157.659 207.2C157.218 206.66 156.643 206.241 155.933 205.943C155.237 205.631 154.427 205.474 153.504 205.474C152.297 205.474 151.267 205.716 150.414 206.199C149.576 206.682 149.164 207.335 149.179 208.159C149.164 208.798 149.42 209.352 149.946 209.821C150.485 210.29 151.444 210.666 152.822 210.95L159.129 212.143C162.396 212.768 164.825 213.805 166.416 215.254C168.021 216.703 168.831 218.621 168.845 221.007C168.831 223.251 168.163 225.204 166.842 226.866C165.535 228.528 163.745 229.821 161.473 230.744C159.2 231.653 156.6 232.108 153.674 232.108C149.001 232.108 145.315 231.149 142.616 229.231C139.931 227.3 138.397 224.714 138.014 221.476L148.305 221.22C148.532 222.413 149.122 223.322 150.074 223.947C151.025 224.572 152.24 224.885 153.717 224.885C155.052 224.885 156.139 224.636 156.977 224.139C157.815 223.642 158.241 222.981 158.255 222.158C158.241 221.419 157.914 220.829 157.275 220.389C156.636 219.935 155.635 219.579 154.271 219.324L148.561 218.237C145.279 217.641 142.836 216.54 141.231 214.935C139.626 213.315 138.831 211.256 138.845 208.756C138.831 206.568 139.413 204.7 140.592 203.152C141.771 201.589 143.447 200.396 145.62 199.572C147.794 198.749 150.358 198.337 153.312 198.337C157.744 198.337 161.238 199.267 163.795 201.128C166.352 202.974 167.765 205.517 168.035 208.756ZM184.393 212.825V231.49H173.974V187.854H184.053V204.771H184.415C185.153 202.754 186.361 201.177 188.037 200.041C189.727 198.905 191.794 198.337 194.237 198.337C196.538 198.337 198.541 198.848 200.246 199.871C201.95 200.879 203.271 202.307 204.209 204.153C205.161 206 205.629 208.159 205.615 210.631V231.49H195.196V212.676C195.21 210.858 194.756 209.437 193.832 208.415C192.909 207.392 191.609 206.881 189.933 206.881C188.839 206.881 187.874 207.122 187.036 207.605C186.212 208.074 185.565 208.749 185.097 209.629C184.642 210.51 184.408 211.575 184.393 212.825ZM240.755 202.108C240.514 201.213 240.159 200.425 239.69 199.743C239.221 199.047 238.646 198.457 237.964 197.974C237.282 197.491 236.501 197.129 235.62 196.888C234.74 196.632 233.774 196.504 232.723 196.504C230.606 196.504 228.774 197.016 227.225 198.038C225.691 199.061 224.505 200.552 223.667 202.513C222.829 204.459 222.41 206.824 222.41 209.608C222.41 212.406 222.815 214.793 223.625 216.767C224.434 218.741 225.606 220.247 227.14 221.284C228.674 222.321 230.535 222.839 232.723 222.839C234.654 222.839 236.288 222.527 237.623 221.902C238.973 221.263 239.995 220.361 240.691 219.196C241.387 218.031 241.735 216.66 241.735 215.084L243.696 215.318H233.085V207.626H251.899V213.401C251.899 217.307 251.068 220.652 249.406 223.436C247.758 226.22 245.485 228.358 242.588 229.849C239.704 231.341 236.387 232.087 232.637 232.087C228.475 232.087 224.818 231.185 221.664 229.381C218.511 227.577 216.054 225.006 214.292 221.668C212.531 218.315 211.65 214.338 211.65 209.736C211.65 206.156 212.183 202.981 213.248 200.212C214.314 197.427 215.798 195.07 217.701 193.138C219.619 191.206 221.835 189.743 224.349 188.749C226.877 187.754 229.598 187.257 232.51 187.257C235.038 187.257 237.389 187.619 239.562 188.344C241.75 189.068 243.681 190.091 245.358 191.412C247.048 192.733 248.419 194.302 249.47 196.121C250.521 197.939 251.174 199.935 251.43 202.108H240.755ZM273.392 232.108C269.955 232.108 267 231.405 264.528 229.999C262.071 228.578 260.175 226.604 258.839 224.075C257.518 221.533 256.858 218.585 256.858 215.233C256.858 211.866 257.518 208.919 258.839 206.391C260.175 203.848 262.071 201.874 264.528 200.467C267 199.047 269.955 198.337 273.392 198.337C276.83 198.337 279.777 199.047 282.234 200.467C284.706 201.874 286.602 203.848 287.923 206.391C289.259 208.919 289.926 211.866 289.926 215.233C289.926 218.585 289.259 221.533 287.923 224.075C286.602 226.604 284.706 228.578 282.234 229.999C279.777 231.405 276.83 232.108 273.392 232.108ZM273.456 224.246C274.706 224.246 275.764 223.862 276.631 223.095C277.497 222.328 278.158 221.263 278.612 219.899C279.081 218.535 279.315 216.959 279.315 215.169C279.315 213.351 279.081 211.76 278.612 210.396C278.158 209.033 277.497 207.967 276.631 207.2C275.764 206.433 274.706 206.05 273.456 206.05C272.163 206.05 271.07 206.433 270.175 207.2C269.294 207.967 268.619 209.033 268.151 210.396C267.696 211.76 267.469 213.351 267.469 215.169C267.469 216.959 267.696 218.535 268.151 219.899C268.619 221.263 269.294 222.328 270.175 223.095C271.07 223.862 272.163 224.246 273.456 224.246Z" fill="white"/>
</svg>
